<?xml version="1.0" encoding="UTF-8"?>
<svg id="Layer_1" xmlns="http://www.w3.org/2000/svg" version="1.1" viewBox="0 0 416 416">
  <!-- Generator: Adobe Illustrator 29.0.0, SVG Export Plug-In . SVG Version: 2.1.0 Build 186)  -->
  <defs>
    <style>
      .st0 {
        fill: #b6e60d;
      }
    </style>
  </defs>
  <path class="st0" d="M208,8c27,0,53.19,5.29,77.85,15.71,23.81,10.07,45.2,24.49,63.57,42.86,18.37,18.37,32.79,39.76,42.86,63.57,10.43,24.65,15.71,50.84,15.71,77.85s-5.29,53.19-15.71,77.85c-10.07,23.81-24.49,45.2-42.86,63.57-18.37,18.37-39.76,32.79-63.57,42.86-24.65,10.43-50.84,15.71-77.85,15.71s-53.19-5.29-77.85-15.71c-23.81-10.07-45.2-24.49-63.57-42.86-18.37-18.37-32.79-39.76-42.86-63.57-10.43-24.65-15.71-50.84-15.71-77.85s5.29-53.19,15.71-77.85c10.07-23.81,24.49-45.2,42.86-63.57,18.37-18.37,39.76-32.79,63.57-42.86,24.65-10.43,50.84-15.71,77.85-15.71M208,0C93.12,0,0,93.12,0,208s93.12,208,208,208,208-93.12,208-208S322.88,0,208,0h0Z"/>
  <g>
    <path class="st0" d="M307.22,306.92h-41.22l.02-71.07c-.79-16.22-4.88-29.62-24.04-28.37-16.66,1.09-21.26,14.23-22.07,28.85l.02,71.07h-41.22v-132.88h39.04l.73.73v17.7l6.53-8.75c13.32-13.15,34.07-15.32,51.55-10.3,21.81,6.27,28.26,25.17,30.18,45.96l.49,87.05Z"/>
    <rect class="st0" x="111.78" y="174.53" width="41.22" height="132.88"/>
    <path class="st0" d="M130.11,108.72c31.7-2.94,35.08,45.47,4.22,47.86-31.1,2.4-35.32-44.97-4.22-47.86Z"/>
  </g>
</svg>