<?xml version="1.0" encoding="UTF-8"?>
<svg id="Layer_1" xmlns="http://www.w3.org/2000/svg" version="1.1" viewBox="0 0 416 416">
  <!-- Generator: Adobe Illustrator 29.0.0, SVG Export Plug-In . SVG Version: 2.1.0 Build 186)  -->
  <defs>
    <style>
      .st0 {
        fill: #b6e60d;
      }
    </style>
  </defs>
  <path class="st0" d="M208,8c27,0,53.19,5.29,77.85,15.71,23.81,10.07,45.2,24.49,63.57,42.86,18.37,18.37,32.79,39.76,42.86,63.57,10.43,24.65,15.71,50.84,15.71,77.85s-5.29,53.19-15.71,77.85c-10.07,23.81-24.49,45.2-42.86,63.57-18.37,18.37-39.76,32.79-63.57,42.86-24.65,10.43-50.84,15.71-77.85,15.71s-53.19-5.29-77.85-15.71c-23.81-10.07-45.2-24.49-63.57-42.86-18.37-18.37-32.79-39.76-42.86-63.57-10.43-24.65-15.71-50.84-15.71-77.85s5.29-53.19,15.71-77.85c10.07-23.81,24.49-45.2,42.86-63.57,18.37-18.37,39.76-32.79,63.57-42.86,24.65-10.43,50.84-15.71,77.85-15.71M208,0C93.12,0,0,93.12,0,208s93.12,208,208,208,208-93.12,208-208S322.88,0,208,0h0Z"/>
  <path class="st0" d="M256.51,77.24c-.07,33.31,26.37,62.32,59.56,65.43,2.25.21,5.2-.7,6.89.77v41.66c-16.98.59-33.72-3.88-48.91-11.16l-17.54-10.82c.11,25.47-.15,50.97-.03,76.45.13,28.2.54,48.22-19.14,70.79-52.1,59.74-151.51,18.44-143.91-60.58,4.42-45.99,48.63-79.19,94.06-71.83v42.94c-9.27-2-17.32-2.4-26.34,1.01-47.69,18.03-19.54,91.31,28.73,71.67,27.35-11.13,23.87-37.64,24.21-62.18.72-51.36-.59-102.79-.02-154.15h42.43Z"/>
</svg>